<?xml version="1.0" encoding="UTF-8" standalone="no"?>
<svg width="512px" height="512px" viewBox="0 0 512 512" version="1.1" xmlns="http://www.w3.org/2000/svg" xmlns:xlink="http://www.w3.org/1999/xlink" xmlns:sketch="http://www.bohemiancoding.com/sketch/ns">
    <!-- Generator: Sketch 3.4.3 (16618) - http://www.bohemiancoding.com/sketch -->
    <title>ic_launcher</title>
    <desc>Created with Sketch.</desc>
    <defs>
        <filter x="-50%" y="-50%" width="200%" height="200%" filterUnits="objectBoundingBox" id="filter-1">
            <feOffset dx="0" dy="1" in="SourceAlpha" result="shadowOffsetInner1"></feOffset>
            <feGaussianBlur stdDeviation="10.5" in="shadowOffsetInner1" result="shadowBlurInner1"></feGaussianBlur>
            <feComposite in="shadowBlurInner1" in2="SourceAlpha" operator="arithmetic" k2="-1" k3="1" result="shadowInnerInner1"></feComposite>
            <feColorMatrix values="0 0 0 0 0.290196078   0 0 0 0 0.564705882   0 0 0 0 0.88627451  0 0 0 0.35 0" in="shadowInnerInner1" type="matrix" result="shadowMatrixInner1"></feColorMatrix>
            <feMerge>
                <feMergeNode in="SourceGraphic"></feMergeNode>
                <feMergeNode in="shadowMatrixInner1"></feMergeNode>
            </feMerge>
        </filter>
    </defs>
    <g id="Page-1" stroke="none" stroke-width="1" fill="none" fill-rule="evenodd" sketch:type="MSPage">
        <g id="ic_launcher" sketch:type="MSArtboardGroup">
            <path d="M128,182 C104.18125,182 85,201.221429 85,225 L85,438 C85,461.778571 104.18125,481 128,481 L383,481 C406.81875,481 426,461.778571 426,438 L426,225 C426,201.221429 406.81875,182 383,182 L128,182 Z" id="Main-body" fill="#7D848C" sketch:type="MSShapeGroup"></path>
            <g id="Main-body-highlight" sketch:type="MSLayerGroup" transform="translate(0.000000, 182.000000)" fill="#9FA4AB">
                <rect id="Mask" sketch:type="MSShapeGroup" x="0" y="0" width="256" height="330"></rect>
            </g>
            <path d="M362,181 L362,138 C362,79.68 314.288,32 255,32 C196.712,32 149,79.68 149,138 L149,181 L362,181 Z M321,181 L189,181 L189,138 C189,101.707843 218.593548,72 255,72 C291.406452,72 321,101.707843 321,138 L321,181 Z" id="Padock" fill-opacity="0.846269248" fill="#7A7A76" sketch:type="MSShapeGroup"></path>
            <g id="Patch" sketch:type="MSLayerGroup" transform="translate(214.000000, 257.000000)">
                <path d="M212,152.05414 C180.376354,120.423978 74.0594362,14.1084284 73.7708828,13.8291248 C66.1145897,5.91946278 55.533987,1 44,1 C20.125,1 1,20.35 1,44 C1,56.1063165 6.0114477,67.0858762 14.1061501,74.9199448 C14.4339886,75.2586891 15.6976746,76.5222575 16,76.8168599 L16,143.001368 C16,145.460063 17.1144551,147.664483 18.8669269,149.133328 C19.0204405,149.316482 56.5799094,186.890593 93.6896767,224 L169,224 C192.875,224 212,204.842857 212,181 L212,152.05414 Z" id="Patch-Shadow" fill-opacity="0.1" fill="#000000" sketch:type="MSShapeGroup"></path>
                <path d="M15,75.6470087 C5.80031696,67.7445901 0,56.0243568 0,43 C0,19.35 19.125,0 43,0 C65.875,0 85,19.35 85,43 C85,55.1204968 79.9768055,66.1115956 72,73.9474602 L72,142.001368 C72,146.418891 68.4128018,150 63.999345,150 L23.000655,150 C18.5820153,150 15,146.409322 15,142.001368 L15,75.6470087 Z" fill="#343A41" filter="url(#filter-1)" sketch:type="MSShapeGroup"></path>
            </g>
        </g>
    </g>
</svg>